<?xml version="1.0" encoding="UTF-8" standalone="no"?>
<svg
   width="456"
   height="456"
   viewBox="0 0 456 456"
   version="1.1"
   xml:space="preserve"
   style="fill-rule:evenodd;clip-rule:evenodd;stroke-linejoin:round;stroke-miterlimit:2;"
   id="svg4"
   sodipodi:docname="appiconfg.svg"
   inkscape:version="1.4.2 (f4327f4, 2025-05-13)"
   xmlns:inkscape="http://www.inkscape.org/namespaces/inkscape"
   xmlns:sodipodi="http://sodipodi.sourceforge.net/DTD/sodipodi-0.dtd"
   xmlns="http://www.w3.org/2000/svg"
   xmlns:svg="http://www.w3.org/2000/svg"><defs
   id="defs4" /><sodipodi:namedview
   id="namedview4"
   pagecolor="#ffffff"
   bordercolor="#000000"
   borderopacity="0.25"
   inkscape:showpageshadow="2"
   inkscape:pageopacity="0.0"
   inkscape:pagecheckerboard="0"
   inkscape:deskcolor="#d1d1d1"
   inkscape:zoom="1.9407895"
   inkscape:cx="228"
   inkscape:cy="228.51525"
   inkscape:window-width="1920"
   inkscape:window-height="1129"
   inkscape:window-x="1912"
   inkscape:window-y="-8"
   inkscape:window-maximized="1"
   inkscape:current-layer="svg4" />
    
    
    
    
<ellipse
   style="fill:none;stroke:#8ebbff;stroke-width:1.75748;stroke-opacity:1"
   id="path5"
   cx="226.71187"
   cy="228.25763"
   rx="205.07118"
   ry="205.58644" /><g
   style="fill:none;stroke:#ffffff"
   id="g1"
   transform="matrix(17.2622,0,0,13.295935,11.737763,73.116587)"><g
     id="SVGRepo_bgCarrier"
     stroke-width="0" /><g
     id="SVGRepo_tracerCarrier"
     stroke-linecap="round"
     stroke-linejoin="round" /><g
     id="SVGRepo_iconCarrier"><path
       d="M 10,6 V 4 m 4,2 V 4 m 0,2 H 7 m 7,0 c 1.6569,0 3,1.34315 3,3 0,1.6569 -1.3431,3 -3,3 M 9,18 V 12 M 9,6 v 6 m 1,8 v -2 m 4,2 V 18 M 9,12 h 6 c 1.6569,0 3,1.3431 3,3 0,1.6569 -1.3431,3 -3,3 H 7"
       stroke="#ffffff"
       stroke-width="2"
       stroke-linecap="round"
       stroke-linejoin="round"
       id="path1" /></g></g></svg>
